# xmcd
#
# Track frame offsets: 
#        150
#        16239
#        34923
#        60908
#        73490
#        89910
#        104891
#        138343
#        149893
#        161681
#        194389
#        213010
#        233693
#
# Disc length: 3353 seconds
#
# Revision: 0
# Processed by: cddbd v1.5.2PL0 Copyright (c) Steve Scherf et al.
# Submitted via: ExactAudioCopyFreeDBPlugin 1.0
#
DISCID=c80d170d
DTITLE=Jonny Glut - Schmuggelkuss und Pflaumentraum
DYEAR=2013
DGENRE=Ballad
TTITLE0=Nordsee
TTITLE1=Bin 'ne Bremerin
TTITLE2=Vom Larie bis ins Dorf
TTITLE3=Wir segeln nach St. Pauli
TTITLE4=Karacho im Wind
TTITLE5=Das Lied vom Kutterkapitän
TTITLE6=Glut-Song
TTITLE7=Zack das Feuer von Hegoland
TTITLE8=Runter vom Schiff
TTITLE9=Albtraum
TTITLE10=Der Song von Jonny Pechstein
TTITLE11=Willi's La Paloma
TTITLE12=Die Kutterpflaume von Büsum
EXTD=
EXTT0=
EXTT1=
EXTT2=
EXTT3=
EXTT4=
EXTT5=
EXTT6=
EXTT7=
EXTT8=
EXTT9=
EXTT10=
EXTT11=
EXTT12=
PLAYORDER=
